<svg width="40" height="40" viewBox="0 0 40 40" fill="none" xmlns="http://www.w3.org/2000/svg">
<path d="M16.6907 3.33301C10.3943 3.33301 7.24607 3.33301 5.29002 5.28562C3.33398 7.23826 3.33398 10.3809 3.33398 16.6663C3.33398 22.9517 3.33398 26.0945 5.29002 28.047C7.24607 29.9997 10.3943 29.9997 16.6907 29.9997H23.369C29.6655 29.9997 32.8137 29.9997 34.7697 28.047C36.119 26.7002 36.5375 24.7868 36.6673 21.6663" stroke="black" stroke-width="2.5" stroke-linecap="round"/>
<path d="M20 30V36.6667" stroke="black" stroke-width="2.5"/>
<path d="M13.334 36.667H26.6673" stroke="black" stroke-width="2.5" stroke-linecap="round"/>
<path d="M18.334 25H21.6673" stroke="black" stroke-width="2.5" stroke-linecap="round" stroke-linejoin="round"/>
<path d="M30.0007 6.66699H26.6673C25.096 6.66699 24.3103 6.66699 23.8222 7.15514C23.334 7.64331 23.334 8.42898 23.334 10.0003V13.3337C23.334 14.905 23.334 15.6907 23.8222 16.1788C24.3103 16.667 25.096 16.667 26.6673 16.667H30.0007C31.572 16.667 32.3577 16.667 32.8458 16.1788C33.334 15.6907 33.334 14.905 33.334 13.3337V10.0003C33.334 8.42898 33.334 7.64331 32.8458 7.15514C32.3577 6.66699 31.572 6.66699 30.0007 6.66699Z" stroke="black" stroke-width="2.5" stroke-linecap="round" stroke-linejoin="round"/>
<path d="M25.8333 16.6663V19.9997M30.8333 16.6663V19.9997M25.8333 3.33301V6.66634M30.8333 3.33301V6.66634M23.3333 9.16634H20M23.3333 14.1663H20M36.6667 9.16634H33.3333M36.6667 14.1663H33.3333" stroke="black" stroke-width="2.5" stroke-linecap="round" stroke-linejoin="round"/>
</svg>
