<svg width="40" height="40" viewBox="0 0 40 40" fill="none" xmlns="http://www.w3.org/2000/svg">
<path d="M29.13 13.3331C29.1423 13.333 29.1548 13.333 29.1673 13.333C33.3095 13.333 36.6673 16.6908 36.6673 20.833C36.6673 24.0985 34.5803 26.8767 31.6673 27.9062M29.13 13.3331C29.1547 13.0586 29.1673 12.7806 29.1673 12.4997C29.1673 7.43706 25.0633 3.33301 20.0007 3.33301C15.2061 3.33301 11.2712 7.01404 10.868 11.7042M29.13 13.3331C28.9595 15.2238 28.215 16.949 27.072 18.333M10.868 11.7042C6.64062 12.1065 3.33398 15.6669 3.33398 19.9997C3.33398 23.4168 5.39082 26.3537 8.33398 27.6397M10.868 11.7042C11.1311 11.6791 11.3977 11.6663 11.6673 11.6663C13.5437 11.6663 15.2752 12.2865 16.6682 13.333" stroke="black" stroke-width="2.5" stroke-linecap="round" stroke-linejoin="round"/>
<path d="M30.416 35.4163L26.666 31.6663V28.333M30.416 34.1663C29.7257 34.1663 29.166 34.726 29.166 35.4163C29.166 36.1067 29.7257 36.6663 30.416 36.6663C31.1063 36.6663 31.666 36.1067 31.666 35.4163C31.666 34.726 31.1063 34.1663 30.416 34.1663Z" stroke="black" stroke-width="2.5" stroke-linecap="round" stroke-linejoin="round"/>
<path d="M9.58398 35.4163L13.334 31.6663V28.333M9.58398 34.1663C10.2743 34.1663 10.834 34.726 10.834 35.4163C10.834 36.1067 10.2743 36.6663 9.58398 36.6663C8.89363 36.6663 8.33398 36.1067 8.33398 35.4163C8.33398 34.726 8.89363 34.1663 9.58398 34.1663Z" stroke="black" stroke-width="2.5" stroke-linecap="round" stroke-linejoin="round"/>
<path d="M20 35.4163V28.333M20 34.1663C19.3097 34.1663 18.75 34.726 18.75 35.4163C18.75 36.1067 19.3097 36.6663 20 36.6663C20.6903 36.6663 21.25 36.1067 21.25 35.4163C21.25 34.726 20.6903 34.1663 20 34.1663Z" stroke="black" stroke-width="2.5" stroke-linecap="round" stroke-linejoin="round"/>
</svg>
