<svg width="40" height="40" viewBox="0 0 40 40" fill="none" xmlns="http://www.w3.org/2000/svg">
<path d="M19.9993 19.1663C20.8252 19.1663 21.593 18.8355 23.1285 18.1738L24.2365 17.6963C26.9673 16.5197 28.3327 15.9314 28.3327 14.9997C28.3327 14.068 26.9673 13.4796 24.2365 12.303L23.1285 11.8255C21.593 11.1638 20.8252 10.833 19.9993 10.833C19.1735 10.833 18.4057 11.1638 16.8702 11.8255L15.7621 12.303C13.0314 13.4796 11.666 14.068 11.666 14.9997C11.666 15.9314 13.0314 16.5197 15.7621 17.6963L16.8702 18.1738C18.4057 18.8355 19.1735 19.1663 19.9993 19.1663ZM19.9993 19.1663V29.1663" stroke="black" stroke-width="2.5" stroke-linejoin="round"/>
<path d="M28.3327 15V25C28.3327 25.9317 26.9673 26.52 24.2365 27.6967L23.1285 28.1742C21.593 28.8358 20.8252 29.1667 19.9993 29.1667C19.1735 29.1667 18.4057 28.8358 16.8702 28.1742L15.7621 27.6967C13.0314 26.52 11.666 25.9317 11.666 25V15" stroke="black" stroke-width="2.5" stroke-linejoin="round"/>
<path d="M15.2398 4.16699C10.8114 4.26824 8.22483 4.69126 6.45757 6.45854C4.69028 8.22581 4.26727 10.8124 4.16602 15.2408M24.7588 4.16699C29.1873 4.26824 31.7738 4.69126 33.5412 6.45854C35.3083 8.22581 35.7313 10.8124 35.8327 15.2408M24.7588 35.8337C29.1873 35.7323 31.7738 35.3093 33.5412 33.5422C35.3083 31.7748 35.7313 29.1883 35.8327 24.7598M15.2398 35.8337C10.8114 35.7323 8.22483 35.3093 6.45757 33.5422C4.69028 31.7748 4.26727 29.1883 4.16602 24.7598" stroke="black" stroke-width="2.5" stroke-linecap="round" stroke-linejoin="round"/>
</svg>
